<svg width="136" height="49" viewBox="0 0 136 49" fill="none" xmlns="http://www.w3.org/2000/svg">
<path d="M8.92764 27.3053H22.7998C26.5082 27.3053 31.7961 29.5566 31.7961 33.8545C31.7961 38.357 26.5082 39.585 22.7998 39.585H8.92764V27.3053ZM8.92764 8.40819H22.7998C28.5684 8.40819 30.354 12.0921 30.354 14.2752C30.354 17.004 28.4998 19.3917 22.7998 19.3917H8.92764V8.40819ZM22.7998 0.221717C15.177 0.221717 7.55416 0.221717 0 0.221717V47.9761C7.62283 47.9761 15.177 47.9761 22.7998 47.9761C32.7576 47.9761 40.7924 44.5651 40.7924 33.9227C40.7924 30.921 38.7322 24.9858 33.1009 23.2803C37.5648 21.3019 39.3503 17.7544 39.3503 14.0705C39.3503 4.4514 32.2768 0.221717 22.7998 0.221717Z" fill="#00E9CD"/>
<path d="M73.1117 18.9824C71.1888 15.6396 66.8623 13.5247 62.3298 13.5247C52.4408 13.4565 44.6806 19.5281 44.6806 31.1256C44.6806 42.9278 52.0974 49.0677 62.1238 48.9994C65.9009 48.9312 71.1888 47.021 73.1117 43.0642L73.5237 47.9761H81.4212V14.3434H73.3864L73.1117 18.9824ZM63.0852 20.9608C76.2707 20.9608 76.2707 41.3587 63.0852 41.3587C57.5226 41.3587 53.0588 37.5384 53.0588 31.1256C53.0588 24.7129 57.5226 20.9608 63.0852 20.9608Z" fill="#00E9CD"/>
<path d="M96.8955 14.2069V47.9761H88.5172V14.2069H96.8955ZM87.7618 4.86072C87.7618 11.3417 97.6509 11.3417 97.6509 4.86072C97.6509 -1.62024 87.7618 -1.62024 87.7618 4.86072Z" fill="#00E9CD"/>
<path d="M104.273 0.289936V47.9761H112.651V32.7629L125.905 47.9761H136V47.3621L120.274 30.1706L134.077 14.8209V14.3434H124.051L112.651 27.8511V0.289936H104.273Z" fill="#00E9CD"/>
</svg>
