<svg width="120" height="43" viewBox="0 0 120 43" fill="none" xmlns="http://www.w3.org/2000/svg">
<path d="M7.87733 23.9618H20.1175C23.3896 23.9618 28.0554 25.9374 28.0554 29.709C28.0554 33.6602 23.3896 34.7379 20.1175 34.7379H7.87733V23.9618ZM7.87733 7.37861H20.1175C25.2075 7.37861 26.7829 10.6114 26.7829 12.5272C26.7829 14.9219 25.1469 17.0172 20.1175 17.0172H7.87733V7.37861ZM20.1175 0.194568C13.3915 0.194568 6.66543 0.194568 0 0.194568V42.1015C6.72603 42.1015 13.3915 42.1015 20.1175 42.1015C28.9037 42.1015 35.9933 39.1081 35.9933 29.7689C35.9933 27.1347 34.1755 21.9263 29.2067 20.4296C33.1454 18.6935 34.7208 15.5804 34.7208 12.3476C34.7208 3.90633 28.4796 0.194568 20.1175 0.194568Z" fill="white"/>
<path d="M64.5103 16.658C62.8136 13.7245 58.9962 11.8686 54.9969 11.8686C46.2713 11.8088 39.424 17.1369 39.424 27.3143C39.424 37.6713 45.9683 43.0594 54.8151 42.9995C58.1478 42.9396 62.8136 41.2634 64.5103 37.7911L64.8739 42.1015H71.8423V12.587H64.7527L64.5103 16.658ZM55.6635 18.3941C67.2977 18.3941 67.2977 36.2944 55.6635 36.2944C50.7553 36.2944 46.8166 32.9418 46.8166 27.3143C46.8166 21.6868 50.7553 18.3941 55.6635 18.3941Z" fill="white"/>
<path d="M85.496 12.4673V42.1015H78.1034V12.4673H85.496ZM77.4369 4.26553C77.4369 9.9529 86.1625 9.9529 86.1625 4.26553C86.1625 -1.42184 77.4369 -1.42184 77.4369 4.26553Z" fill="white"/>
<path d="M92.0052 0.254434V42.1015H99.3978V28.7511L111.093 42.1015H120V41.5627L106.124 26.4762L118.303 13.0061V12.587H109.456L99.3978 24.4407V0.254434H92.0052Z" fill="white"/>
</svg>
